<?xml version="1.0" encoding="UTF-8" standalone="yes"?><svg xmlns="http://www.w3.org/2000/svg" xmlns:xlink="http://www.w3.org/1999/xlink" width="552" height="144" viewBox="0 0 552 144" version="1.1"><g transform="scale(1.000000,-1.000000) translate(0,-144)"><path d="M 39.070519 7.101895 Q 38.672569 7.566170 38.075644 7.566170 Q 37.744020 7.566170 36.715983 6.703945 Q 35.687946 5.841721 33.797685 4.813684 Q 31.907425 3.785648 28.989127 2.989748 Q 26.070829 2.193849 21.892358 2.193849 Q 17.249612 2.193849 13.402765 3.520348 Q 9.555918 4.846847 6.803433 7.334032 Q 4.050947 9.821218 2.525474 13.236952 Q 1.000000 16.652687 1.000000 20.698509 Q 1.000000 24.081081 2.425986 27.132028 Q 3.851973 30.182976 6.538133 32.537511 Q 9.224293 34.892047 13.037978 36.284871 Q 16.851662 37.677695 21.627058 37.677695 Q 24.943305 37.677695 27.529978 37.113933 Q 30.116651 36.550171 32.040074 35.886921 Q 33.963498 35.223672 35.190509 34.659910 Q 36.417521 34.096148 36.881795 34.096148 Q 37.412395 34.096148 37.545045 34.261960 Q 37.677695 34.427772 37.876670 34.693072 L 38.672569 34.162473 L 34.560422 27.065703 L 33.698198 27.463653 Q 34.029823 27.795278 34.029823 28.325877 Q 34.029823 28.856477 33.034949 29.685539 Q 32.040074 30.514601 30.315626 31.277338 Q 28.591177 32.040074 26.269804 32.603836 Q 23.948431 33.167598 21.295433 33.167598 Q 18.642435 33.167598 15.956275 32.404862 Q 13.270115 31.642125 11.180879 30.050326 Q 9.091643 28.458527 7.765144 25.971342 Q 6.438646 23.484156 6.438646 20.035259 Q 6.438646 17.050637 7.798307 14.563451 Q 9.157968 12.076266 11.413016 10.285492 Q 13.668065 8.494719 16.553200 7.499845 Q 19.438335 6.504970 22.489282 6.504970 Q 24.876980 6.504970 27.032541 7.201382 Q 29.188102 7.897794 30.846225 8.892668 Q 32.504349 9.887543 33.499223 10.915579 Q 34.494097 11.943616 34.494097 12.606865 Q 34.494097 13.203790 34.162473 13.535415 L 35.024697 14.066014 L 39.932743 7.698819 Z M 65.202547 28.259553 Q 62.350574 28.259553 60.062364 27.397328 Q 57.774153 26.535104 56.182354 25.009630 Q 54.590556 23.484156 53.728332 21.428083 Q 52.866107 19.372010 52.866107 17.050637 Q 52.866107 14.662939 53.728332 12.606865 Q 54.590556 10.550792 56.182354 9.025318 Q 57.774153 7.499845 60.062364 6.604458 Q 62.350574 5.709071 65.202547 5.709071 Q 68.054520 5.709071 70.342730 6.604458 Q 72.630941 7.499845 74.222740 9.025318 Q 75.814538 10.550792 76.676763 12.606865 Q 77.538987 14.662939 77.538987 17.050637 Q 77.538987 19.372010 76.676763 21.428083 Q 75.814538 23.484156 74.222740 25.009630 Q 72.630941 26.535104 70.342730 27.397328 Q 68.054520 28.259553 65.202547 28.259553 Z M 65.202547 31.973749 Q 69.049394 31.973749 72.133504 30.779900 Q 75.217614 29.586051 77.406337 27.563141 Q 79.595060 25.540230 80.755747 22.820907 Q 81.916433 20.101584 81.916433 16.984312 Q 81.916433 13.867039 80.755747 11.147717 Q 79.595060 8.428394 77.406337 6.405483 Q 75.217614 4.382572 72.133504 3.288211 Q 69.049394 2.193849 65.202547 2.193849 Q 61.355700 2.193849 58.271590 3.288211 Q 55.187480 4.382572 52.998757 6.405483 Q 50.810034 8.428394 49.649347 11.147717 Q 48.488661 13.867039 48.488661 16.984312 Q 48.488661 20.101584 49.649347 22.820907 Q 50.810034 25.540230 52.998757 27.563141 Q 55.187480 29.586051 58.271590 30.779900 Q 61.355700 31.973749 65.202547 31.973749 Z M 97.436470 5.045822 Q 97.436470 3.918298 97.734933 3.553510 Q 98.033395 3.188723 99.094594 3.188723 L 99.094594 2.392824 L 91.666200 2.392824 L 91.666200 3.188723 Q 92.727399 3.188723 93.025862 3.553510 Q 93.324324 3.918298 93.324324 5.045822 L 93.324324 28.922802 Q 93.324324 30.050326 93.025862 30.415113 Q 92.727399 30.779900 91.666200 30.779900 L 91.666200 31.575800 L 111.961633 31.575800 Q 116.339080 31.575800 118.328828 29.387077 Q 120.318577 27.198353 120.318577 23.417832 Q 120.318577 19.570985 118.229341 17.614399 Q 116.140105 15.657813 112.293258 15.525163 L 119.589002 4.382572 Q 120.053277 3.652998 120.384902 3.420861 Q 120.716526 3.188723 121.247126 3.188723 L 121.247126 2.392824 L 114.084032 2.392824 L 114.084032 3.188723 Q 114.813606 3.188723 114.979418 3.288211 Q 115.145231 3.387698 115.145231 3.719323 Q 115.145231 4.050947 114.946256 4.382572 Q 114.747281 4.714197 114.415656 5.311121 L 107.915812 15.525163 L 97.436470 15.525163 Z M 111.563684 19.239360 Q 113.951382 19.239360 114.946256 20.300559 Q 115.941130 21.361758 115.941130 23.550481 Q 115.941130 25.938179 114.913094 27.032541 Q 113.885057 28.126903 110.900434 28.126903 L 97.436470 28.126903 L 97.436470 19.239360 Z M 132.058092 3.188723 Q 133.119291 3.188723 133.484078 3.553510 Q 133.848865 3.918298 133.848865 5.045822 L 133.848865 28.922802 Q 133.848865 30.050326 133.484078 30.415113 Q 133.119291 30.779900 132.058092 30.779900 L 132.058092 31.575800 L 141.741534 31.575800 L 141.741534 30.779900 Q 140.680335 30.779900 140.315548 30.614088 Q 139.950760 30.448276 139.950760 30.182976 Q 139.950760 29.984001 140.680335 29.055452 L 158.654395 8.428394 L 158.654395 28.922802 Q 158.654395 30.050326 158.289608 30.415113 Q 157.924821 30.779900 156.863621 30.779900 L 156.863621 31.575800 L 164.159365 31.575800 L 164.159365 30.779900 Q 163.098166 30.779900 162.733379 30.415113 Q 162.368592 30.050326 162.368592 28.922802 L 162.368592 5.045822 Q 162.368592 3.918298 162.733379 3.553510 Q 163.098166 3.188723 164.159365 3.188723 L 164.159365 2.392824 L 155.271823 2.392824 L 155.271823 3.188723 Q 156.598322 3.188723 156.863621 3.321373 Q 157.128921 3.454023 157.128921 3.785648 Q 157.128921 4.117272 156.896784 4.349410 Q 156.664647 4.581547 156.333022 4.979497 L 137.563062 26.402454 L 137.563062 5.045822 Q 137.563062 3.918298 137.927850 3.553510 Q 138.292637 3.188723 139.353836 3.188723 L 139.353836 2.392824 L 132.058092 2.392824 Z M 177.954954 28.922802 Q 177.954954 30.050326 177.656492 30.415113 Q 177.358030 30.779900 176.429480 30.779900 L 176.429480 31.575800 L 203.158433 31.575800 Q 204.153307 31.575800 204.484932 31.940587 Q 204.816557 32.305374 204.816557 33.167598 L 205.612456 33.167598 L 205.612456 26.269804 L 204.816557 26.269804 Q 204.816557 27.132028 204.484932 27.496816 Q 204.153307 27.861603 203.158433 27.861603 L 182.332400 27.861603 L 182.332400 19.239360 L 196.990213 19.239360 Q 197.985088 19.239360 198.316712 19.604147 Q 198.648337 19.968934 198.648337 20.831159 L 199.444236 20.831159 L 199.444236 13.933364 L 198.648337 13.933364 Q 198.648337 14.795589 198.316712 15.160376 Q 197.985088 15.525163 196.990213 15.525163 L 182.332400 15.525163 L 182.332400 6.107021 L 203.888008 6.107021 Q 204.882882 6.107021 205.214507 6.471808 Q 205.546131 6.836595 205.546131 7.698819 L 206.342031 7.698819 L 206.342031 1.000000 L 205.546131 1.000000 Q 205.546131 1.862224 205.214507 2.127524 Q 204.882882 2.392824 203.888008 2.392824 L 176.429480 2.392824 L 176.429480 3.188723 Q 177.358030 3.188723 177.656492 3.553510 Q 177.954954 3.918298 177.954954 5.045822 Z M 222.724292 5.045822 Q 222.724292 3.918298 223.022754 3.553510 Q 223.321217 3.188723 224.382416 3.188723 L 224.382416 2.392824 L 216.954022 2.392824 L 216.954022 3.188723 Q 218.015221 3.188723 218.313683 3.553510 Q 218.612146 3.918298 218.612146 5.045822 L 218.612146 28.922802 Q 218.612146 30.050326 218.313683 30.415113 Q 218.015221 30.779900 216.954022 30.779900 L 216.954022 31.575800 L 237.249455 31.575800 Q 241.626902 31.575800 243.616650 29.387077 Q 245.606398 27.198353 245.606398 23.417832 Q 245.606398 19.570985 243.517162 17.614399 Q 241.427927 15.657813 237.581080 15.525163 L 244.876824 4.382572 Q 245.341098 3.652998 245.672723 3.420861 Q 246.004348 3.188723 246.534947 3.188723 L 246.534947 2.392824 L 239.371853 2.392824 L 239.371853 3.188723 Q 240.101428 3.188723 240.267240 3.288211 Q 240.433053 3.387698 240.433053 3.719323 Q 240.433053 4.050947 240.234078 4.382572 Q 240.035103 4.714197 239.703478 5.311121 L 233.203633 15.525163 L 222.724292 15.525163 Z M 236.851505 19.239360 Q 239.239203 19.239360 240.234078 20.300559 Q 241.228952 21.361758 241.228952 23.550481 Q 241.228952 25.938179 240.200915 27.032541 Q 239.172879 28.126903 236.188256 28.126903 L 222.724292 28.126903 L 222.724292 19.239360 Z M 258.208138 10.550792 Q 258.075488 9.887543 258.075488 9.688568 Q 258.075488 9.157968 259.103525 8.461556 Q 260.131561 7.765144 261.822847 7.168220 Q 263.514133 6.571295 265.736019 6.140183 Q 267.957905 5.709071 270.345603 5.709071 Q 274.922024 5.709071 277.475534 6.936083 Q 280.029045 8.163094 280.029045 10.418142 Q 280.029045 12.540540 278.271434 13.402765 Q 276.513823 14.264989 273.860825 14.629776 Q 271.207827 14.994563 268.123717 15.160376 Q 265.039607 15.326188 262.386609 15.989438 Q 259.733612 16.652687 257.976001 18.178161 Q 256.218389 19.703635 256.218389 22.754582 Q 256.218389 25.274930 257.246426 27.032541 Q 258.274463 28.790152 259.998911 29.884514 Q 261.723360 30.978875 264.011571 31.476312 Q 266.299781 31.973749 268.753804 31.973749 Q 271.340477 31.973749 273.330225 31.608962 Q 275.319974 31.244175 276.745960 30.779900 Q 278.171946 30.315626 279.034171 29.950839 Q 279.896395 29.586051 280.294345 29.586051 Q 280.625969 29.586051 280.824944 29.751864 Q 281.023919 29.917676 281.355544 30.514601 L 282.217768 30.182976 L 279.763745 23.683131 L 278.967846 24.014756 Q 279.034171 24.147406 279.067333 24.313218 Q 279.100496 24.479031 279.100496 24.810655 Q 279.100496 25.341255 278.205109 25.938179 Q 277.309722 26.535104 275.817411 27.065703 Q 274.325100 27.596303 272.434839 27.927928 Q 270.544578 28.259553 268.554829 28.259553 Q 265.968156 28.259553 264.376358 27.828440 Q 262.784559 27.397328 261.889172 26.700916 Q 260.993786 26.004504 260.662161 25.109118 Q 260.330536 24.213731 260.330536 23.285182 Q 260.330536 21.361758 262.088147 20.532696 Q 263.845758 19.703635 266.498756 19.372010 Q 269.151754 19.040385 272.235864 18.874573 Q 275.319974 18.708760 277.972972 18.045511 Q 280.625969 17.382261 282.383580 15.889950 Q 284.141191 14.397639 284.141191 11.413016 Q 284.141191 6.637620 280.725457 4.415735 Q 277.309722 2.193849 269.682353 2.193849 Q 267.095681 2.193849 264.973282 2.558636 Q 262.850884 2.923423 261.225923 3.420861 Q 259.600962 3.918298 258.473438 4.349410 Q 257.345914 4.780522 256.815314 4.780522 Q 256.284714 4.780522 256.019415 4.448897 Q 255.754115 4.117272 255.621465 3.785648 L 254.825566 4.050947 L 257.412238 10.749767 Z M 318.829138 26.269804 Q 318.829138 27.132028 318.497513 27.496816 Q 318.165888 27.861603 317.171014 27.861603 L 306.890648 27.861603 L 306.890648 5.045822 Q 306.890648 3.918298 307.189110 3.553510 Q 307.487572 3.188723 308.548771 3.188723 L 308.548771 2.392824 L 300.855078 2.392824 L 300.855078 3.188723 Q 301.916277 3.188723 302.214739 3.553510 Q 302.513201 3.918298 302.513201 5.045822 L 302.513201 27.861603 L 292.232835 27.861603 Q 291.237961 27.861603 290.906336 27.496816 Q 290.574711 27.132028 290.574711 26.269804 L 289.778812 26.269804 L 289.778812 33.167598 L 290.574711 33.167598 Q 290.574711 32.305374 290.906336 31.940587 Q 291.237961 31.575800 292.232835 31.575800 L 317.171014 31.575800 Q 318.165888 31.575800 318.497513 31.940587 Q 318.829138 32.305374 318.829138 33.167598 L 319.625037 33.167598 L 319.625037 26.269804 Z M 341.578594 28.259553 Q 338.726621 28.259553 336.438411 27.397328 Q 334.150200 26.535104 332.558402 25.009630 Q 330.966603 23.484156 330.104379 21.428083 Q 329.242154 19.372010 329.242154 17.050637 Q 329.242154 14.662939 330.104379 12.606865 Q 330.966603 10.550792 332.558402 9.025318 Q 334.150200 7.499845 336.438411 6.604458 Q 338.726621 5.709071 341.578594 5.709071 Q 344.430567 5.709071 346.718777 6.604458 Q 349.006988 7.499845 350.598787 9.025318 Q 352.190585 10.550792 353.052810 12.606865 Q 353.915034 14.662939 353.915034 17.050637 Q 353.915034 19.372010 353.052810 21.428083 Q 352.190585 23.484156 350.598787 25.009630 Q 349.006988 26.535104 346.718777 27.397328 Q 344.430567 28.259553 341.578594 28.259553 Z M 341.578594 31.973749 Q 345.425441 31.973749 348.509551 30.779900 Q 351.593661 29.586051 353.782384 27.563141 Q 355.971107 25.540230 357.131794 22.820907 Q 358.292480 20.101584 358.292480 16.984312 Q 358.292480 13.867039 357.131794 11.147717 Q 355.971107 8.428394 353.782384 6.405483 Q 351.593661 4.382572 348.509551 3.288211 Q 345.425441 2.193849 341.578594 2.193849 Q 337.731747 2.193849 334.647637 3.288211 Q 331.563527 4.382572 329.374804 6.405483 Q 327.186081 8.428394 326.025394 11.147717 Q 324.864708 13.867039 324.864708 16.984312 Q 324.864708 20.101584 326.025394 22.820907 Q 327.186081 25.540230 329.374804 27.563141 Q 331.563527 29.586051 334.647637 30.779900 Q 337.731747 31.973749 341.578594 31.973749 Z M 367.909597 3.188723 Q 368.970796 3.188723 369.335584 3.553510 Q 369.700371 3.918298 369.700371 5.045822 L 369.700371 28.922802 Q 369.700371 30.050326 369.335584 30.415113 Q 368.970796 30.779900 367.909597 30.779900 L 367.909597 31.575800 L 377.593039 31.575800 L 377.593039 30.779900 Q 376.531840 30.779900 376.167053 30.614088 Q 375.802266 30.448276 375.802266 30.182976 Q 375.802266 29.984001 376.531840 29.055452 L 394.505900 8.428394 L 394.505900 28.922802 Q 394.505900 30.050326 394.141113 30.415113 Q 393.776326 30.779900 392.715127 30.779900 L 392.715127 31.575800 L 400.010871 31.575800 L 400.010871 30.779900 Q 398.949672 30.779900 398.584885 30.415113 Q 398.220097 30.050326 398.220097 28.922802 L 398.220097 5.045822 Q 398.220097 3.918298 398.584885 3.553510 Q 398.949672 3.188723 400.010871 3.188723 L 400.010871 2.392824 L 391.123328 2.392824 L 391.123328 3.188723 Q 392.449827 3.188723 392.715127 3.321373 Q 392.980427 3.454023 392.980427 3.785648 Q 392.980427 4.117272 392.748289 4.349410 Q 392.516152 4.581547 392.184527 4.979497 L 373.414568 26.402454 L 373.414568 5.045822 Q 373.414568 3.918298 373.779355 3.553510 Q 374.144142 3.188723 375.205341 3.188723 L 375.205341 2.392824 L 367.909597 2.392824 Z M 413.806459 28.922802 Q 413.806459 30.050326 413.507997 30.415113 Q 413.209535 30.779900 412.280986 30.779900 L 412.280986 31.575800 L 439.009939 31.575800 Q 440.004813 31.575800 440.336438 31.940587 Q 440.668062 32.305374 440.668062 33.167598 L 441.463962 33.167598 L 441.463962 26.269804 L 440.668062 26.269804 Q 440.668062 27.132028 440.336438 27.496816 Q 440.004813 27.861603 439.009939 27.861603 L 418.183906 27.861603 L 418.183906 19.239360 L 432.841719 19.239360 Q 433.836593 19.239360 434.168218 19.604147 Q 434.499842 19.968934 434.499842 20.831159 L 435.295742 20.831159 L 435.295742 13.933364 L 434.499842 13.933364 Q 434.499842 14.795589 434.168218 15.160376 Q 433.836593 15.525163 432.841719 15.525163 L 418.183906 15.525163 L 418.183906 6.107021 L 439.739513 6.107021 Q 440.734387 6.107021 441.066012 6.471808 Q 441.397637 6.836595 441.397637 7.698819 L 442.193536 7.698819 L 442.193536 1.000000 L 441.397637 1.000000 Q 441.397637 1.862224 441.066012 2.127524 Q 440.734387 2.392824 439.739513 2.392824 L 412.280986 2.392824 L 412.280986 3.188723 Q 413.209535 3.188723 413.507997 3.553510 Q 413.806459 3.918298 413.806459 5.045822 Z" transform="scale(1.000000,1.000000) translate(84.164347,45.930366)" fill="#ffffff" opacity="1.000000"/><path d="M 2.058983 22.753284 Q 2.058983 23.238651 1.838362 23.525459 Q 1.617740 23.812267 1.000000 23.812267 L 1.000000 24.341759 L 16.178762 24.341759 Q 18.296729 24.341759 19.774893 23.878454 Q 21.253058 23.415149 22.179668 22.598849 Q 23.106279 21.782549 23.525459 20.701504 Q 23.944640 19.620458 23.944640 18.340853 Q 23.944640 16.620005 23.216589 15.362462 Q 22.488538 14.104920 20.635317 13.619552 L 20.635317 13.531304 Q 22.532663 13.090061 23.547522 11.567772 Q 24.562381 10.045483 24.562381 7.883392 Q 24.562381 4.662318 22.532663 2.897345 Q 20.502944 1.132373 15.869892 1.132373 L 1.000000 1.132373 L 1.000000 1.661865 Q 1.617740 1.661865 1.838362 1.948673 Q 2.058983 2.235481 2.058983 2.720848 Z M 15.869892 15.075654 Q 18.384978 15.075654 19.355712 15.825768 Q 20.326447 16.575881 20.326447 18.120232 Q 20.326447 19.664582 19.355712 20.414696 Q 18.384978 21.164809 15.869892 21.164809 L 5.765425 21.164809 L 5.765425 15.075654 Z M 16.840627 4.309323 Q 18.958594 4.309323 20.039639 5.280058 Q 21.120685 6.250793 21.120685 8.104014 Q 21.120685 9.957235 20.039639 10.927969 Q 18.958594 11.898704 16.840627 11.898704 L 5.765425 11.898704 L 5.765425 4.309323 Z M 39.499340 9.339494 L 48.103580 9.339494 L 43.647025 18.605599 Z M 32.660072 1.661865 Q 33.366061 1.661865 33.608744 1.970735 Q 33.851428 2.279605 34.072050 2.764972 L 41.043690 18.737972 Q 41.264312 19.267464 41.264312 19.488085 Q 41.264312 19.708707 41.021628 19.885204 Q 40.778944 20.061701 40.161204 20.105826 L 40.161204 20.547069 L 47.309342 20.547069 L 47.309342 20.017577 Q 46.956348 20.017577 46.625415 19.907266 Q 46.294483 19.796955 46.294483 19.488085 Q 46.294483 19.267464 46.404794 19.046842 Q 46.515105 18.826221 46.603353 18.605599 L 54.148610 2.544351 Q 54.280983 2.235481 54.545729 1.948673 Q 54.810475 1.661865 55.516464 1.661865 L 55.516464 1.132373 L 49.956801 1.132373 L 49.956801 1.661865 Q 50.751038 1.661865 51.015784 1.794238 Q 51.280530 1.926610 51.280530 2.191356 Q 51.280530 2.500226 51.192281 2.720848 Q 51.104033 2.941470 51.015784 3.162091 L 49.206687 6.868533 L 38.484480 6.868533 L 36.984254 3.515086 Q 36.807757 3.117967 36.609197 2.764972 Q 36.410638 2.411978 36.410638 2.191356 Q 36.410638 1.926610 36.675384 1.794238 Q 36.940130 1.661865 37.601994 1.661865 L 37.601994 1.132373 L 32.660072 1.132373 Z M 75.571842 12.075201 Q 77.425063 12.075201 78.285487 12.913563 Q 79.145911 13.751925 79.145911 15.208027 Q 79.145911 16.796502 78.108990 17.524554 Q 77.072069 18.252605 74.954102 18.252605 L 67.452969 18.252605 L 67.452969 12.075201 Z M 64.717262 18.782096 Q 64.717262 19.532210 64.518703 19.774893 Q 64.320143 20.017577 63.614155 20.017577 L 63.614155 20.547069 L 75.439469 20.547069 Q 82.058115 20.547069 82.058115 15.119779 Q 82.058115 13.884298 81.528624 12.869439 Q 80.999132 11.854580 80.138708 11.126529 Q 79.278284 10.398478 78.153114 10.001359 Q 77.027944 9.604240 75.792464 9.604240 L 67.452969 9.604240 L 67.452969 2.897345 Q 67.452969 2.147232 67.651529 1.904548 Q 67.850088 1.661865 68.556077 1.661865 L 68.556077 1.132373 L 63.614155 1.132373 L 63.614155 1.661865 Q 64.320143 1.661865 64.518703 1.904548 Q 64.717262 2.147232 64.717262 2.897345 Z M 107.540784 17.017124 Q 107.540784 17.590740 107.320162 17.833424 Q 107.099541 18.076107 106.437676 18.076107 L 99.598408 18.076107 L 99.598408 2.897345 Q 99.598408 2.147232 99.796968 1.904548 Q 99.995527 1.661865 100.701516 1.661865 L 100.701516 1.132373 L 95.583096 1.132373 L 95.583096 1.661865 Q 96.289085 1.661865 96.487645 1.904548 Q 96.686204 2.147232 96.686204 2.897345 L 96.686204 18.076107 L 89.846936 18.076107 Q 89.185072 18.076107 88.964450 17.833424 Q 88.743829 17.590740 88.743829 17.017124 L 88.214337 17.017124 L 88.214337 21.606052 L 88.743829 21.606052 Q 88.743829 21.032436 88.964450 20.789752 Q 89.185072 20.547069 89.846936 20.547069 L 106.437676 20.547069 Q 107.099541 20.547069 107.320162 20.789752 Q 107.540784 21.032436 107.540784 21.606052 L 108.070276 21.606052 L 108.070276 17.017124 Z M 117.138702 1.661865 Q 117.844690 1.661865 118.043250 1.904548 Q 118.241809 2.147232 118.241809 2.897345 L 118.241809 18.782096 Q 118.241809 19.532210 118.043250 19.774893 Q 117.844690 20.017577 117.138702 20.017577 L 117.138702 20.547069 L 122.080624 20.547069 L 122.080624 20.017577 Q 121.374635 20.017577 121.176076 19.774893 Q 120.977516 19.532210 120.977516 18.782096 L 120.977516 2.897345 Q 120.977516 2.147232 121.176076 1.904548 Q 121.374635 1.661865 122.080624 1.661865 L 122.080624 1.132373 L 117.138702 1.132373 Z M 134.723119 6.559663 Q 134.634870 6.118420 134.634870 5.986047 Q 134.634870 5.633052 135.318797 5.169747 Q 136.002724 4.706442 137.127894 4.309323 Q 138.253064 3.912204 139.731228 3.625396 Q 141.209392 3.338588 142.797867 3.338588 Q 145.842445 3.338588 147.541230 4.154888 Q 149.240016 4.971188 149.240016 6.471414 Q 149.240016 7.883392 148.070722 8.457008 Q 146.901428 9.030624 145.136456 9.273308 Q 143.371483 9.515992 141.319703 9.626302 Q 139.267923 9.736613 137.502950 10.177856 Q 135.737978 10.619099 134.568684 11.633958 Q 133.399390 12.648817 133.399390 14.678536 Q 133.399390 16.355259 134.083316 17.524554 Q 134.767243 18.693848 135.914475 19.421899 Q 137.061707 20.149950 138.583996 20.480882 Q 140.106284 20.811815 141.738884 20.811815 Q 143.459732 20.811815 144.783461 20.569131 Q 146.107190 20.326447 147.055863 20.017577 Q 148.004536 19.708707 148.578152 19.466023 Q 149.151768 19.223339 149.416514 19.223339 Q 149.637135 19.223339 149.769508 19.333650 Q 149.901881 19.443961 150.122503 19.841080 L 150.696119 19.620458 L 149.063519 15.296276 L 148.534027 15.516897 Q 148.578152 15.605146 148.600214 15.715457 Q 148.622276 15.825768 148.622276 16.046389 Q 148.622276 16.399384 148.026598 16.796502 Q 147.430920 17.193621 146.438123 17.546616 Q 145.445326 17.899610 144.187783 18.120232 Q 142.930240 18.340853 141.606511 18.340853 Q 139.885663 18.340853 138.826680 18.054045 Q 137.767696 17.767237 137.172018 17.303932 Q 136.576340 16.840627 136.355718 16.244949 Q 136.135097 15.649270 136.135097 15.031530 Q 136.135097 13.751925 137.304391 13.200371 Q 138.473685 12.648817 140.238657 12.428196 Q 142.003630 12.207574 144.055410 12.097264 Q 146.107190 11.986953 147.872163 11.545710 Q 149.637135 11.104467 150.806429 10.111670 Q 151.975723 9.118873 151.975723 7.133279 Q 151.975723 3.956329 149.703322 2.478164 Q 147.430920 1.000000 142.356624 1.000000 Q 140.635776 1.000000 139.223798 1.242684 Q 137.811820 1.485367 136.730775 1.816300 Q 135.649729 2.147232 134.899616 2.434040 Q 134.149503 2.720848 133.796508 2.720848 Q 133.443514 2.720848 133.267017 2.500226 Q 133.090519 2.279605 133.002271 2.058983 L 132.472779 2.235481 L 134.193627 6.692036 Z M 178.164381 17.017124 Q 178.164381 17.590740 177.943759 17.833424 Q 177.723138 18.076107 177.061273 18.076107 L 170.222005 18.076107 L 170.222005 2.897345 Q 170.222005 2.147232 170.420565 1.904548 Q 170.619124 1.661865 171.325113 1.661865 L 171.325113 1.132373 L 166.206693 1.132373 L 166.206693 1.661865 Q 166.912682 1.661865 167.111242 1.904548 Q 167.309801 2.147232 167.309801 2.897345 L 167.309801 18.076107 L 160.470533 18.076107 Q 159.808669 18.076107 159.588047 17.833424 Q 159.367426 17.590740 159.367426 17.017124 L 158.837934 17.017124 L 158.837934 21.606052 L 159.367426 21.606052 Q 159.367426 21.032436 159.588047 20.789752 Q 159.808669 20.547069 160.470533 20.547069 L 177.061273 20.547069 Q 177.723138 20.547069 177.943759 20.789752 Q 178.164381 21.032436 178.164381 21.606052 L 178.693873 21.606052 L 178.693873 17.017124 Z M 227.497119 4.265199 Q 227.232373 4.574069 226.835254 4.574069 Q 226.614632 4.574069 225.930706 4.000453 Q 225.246779 3.426837 223.989236 2.742910 Q 222.731693 2.058983 220.790224 1.529492 Q 218.848754 1.000000 216.068923 1.000000 Q 212.980221 1.000000 210.421011 1.882486 Q 207.861801 2.764972 206.030643 4.419634 Q 204.199484 6.074295 203.184625 8.346697 Q 202.169766 10.619099 202.169766 13.310682 Q 202.169766 15.561022 203.118438 17.590740 Q 204.067111 19.620458 205.854145 21.186871 Q 207.641180 22.753284 210.178328 23.679895 Q 212.715475 24.606505 215.892426 24.606505 Q 218.098641 24.606505 219.819489 24.231448 Q 221.540337 23.856392 222.819942 23.415149 Q 224.099547 22.973906 224.915847 22.598849 Q 225.732146 22.223792 226.041016 22.223792 Q 226.394011 22.223792 226.482260 22.334103 Q 226.570508 22.444414 226.702881 22.620911 L 227.232373 22.267917 L 224.496666 17.546616 L 223.923050 17.811362 Q 224.143671 18.031983 224.143671 18.384978 Q 224.143671 18.737972 223.481807 19.289526 Q 222.819942 19.841080 221.672710 20.348509 Q 220.525478 20.855939 218.981127 21.230995 Q 217.436776 21.606052 215.671804 21.606052 Q 213.906832 21.606052 212.119797 21.098623 Q 210.332763 20.591193 208.942847 19.532210 Q 207.552931 18.473226 206.670445 16.818565 Q 205.787959 15.163903 205.787959 12.869439 Q 205.787959 10.883845 206.692507 9.229184 Q 207.597056 7.574522 209.097282 6.383166 Q 210.597508 5.191809 212.516916 4.529945 Q 214.436323 3.868080 216.466042 3.868080 Q 218.054517 3.868080 219.488557 4.331385 Q 220.922597 4.794691 222.025704 5.456555 Q 223.128812 6.118420 223.790677 6.802347 Q 224.452541 7.486273 224.452541 7.927516 Q 224.452541 8.324635 224.231920 8.545257 L 224.805536 8.898251 L 228.070735 4.662318 Z M 258.627699 2.897345 Q 258.627699 2.147232 258.826258 1.904548 Q 259.024817 1.661865 259.730806 1.661865 L 259.730806 1.132373 L 254.788884 1.132373 L 254.788884 1.661865 Q 255.494873 1.661865 255.693432 1.904548 Q 255.891992 2.147232 255.891992 2.897345 L 255.891992 10.221980 L 242.566450 10.221980 L 242.566450 2.897345 Q 242.566450 2.147232 242.765010 1.904548 Q 242.963569 1.661865 243.669558 1.661865 L 243.669558 1.132373 L 238.727636 1.132373 L 238.727636 1.661865 Q 239.433624 1.661865 239.632184 1.904548 Q 239.830743 2.147232 239.830743 2.897345 L 239.830743 18.782096 Q 239.830743 19.532210 239.632184 19.774893 Q 239.433624 20.017577 238.727636 20.017577 L 238.727636 20.547069 L 243.669558 20.547069 L 243.669558 20.017577 Q 242.963569 20.017577 242.765010 19.774893 Q 242.566450 19.532210 242.566450 18.782096 L 242.566450 12.692942 L 255.891992 12.692942 L 255.891992 18.782096 Q 255.891992 19.532210 255.693432 19.774893 Q 255.494873 20.017577 254.788884 20.017577 L 254.788884 20.547069 L 259.730806 20.547069 L 259.730806 20.017577 Q 259.024817 20.017577 258.826258 19.774893 Q 258.627699 19.532210 258.627699 18.782096 Z M 291.479127 7.309776 Q 291.479127 5.456555 290.596641 4.221075 Q 289.714154 2.985594 288.302177 2.257543 Q 286.890199 1.529492 285.169351 1.264746 Q 283.448503 1.000000 281.771779 1.000000 Q 280.095055 1.000000 278.374207 1.264746 Q 276.653359 1.529492 275.241381 2.257543 Q 273.829403 2.985594 272.946917 4.221075 Q 272.064431 5.456555 272.064431 7.309776 L 272.064431 18.782096 Q 272.064431 19.532210 271.887934 19.774893 Q 271.711437 20.017577 271.137821 20.017577 L 271.137821 20.547069 L 275.726749 20.547069 L 275.726749 20.017577 Q 275.153133 20.017577 274.976635 19.774893 Q 274.800138 19.532210 274.800138 18.782096 L 274.800138 7.883392 Q 274.800138 5.368307 276.697483 4.353447 Q 278.594829 3.338588 281.771779 3.338588 Q 284.948729 3.338588 286.846074 4.353447 Q 288.743420 5.368307 288.743420 7.883392 L 288.743420 18.782096 Q 288.743420 19.532210 288.566922 19.774893 Q 288.390425 20.017577 287.816809 20.017577 L 287.816809 20.547069 L 292.405737 20.547069 L 292.405737 20.017577 Q 291.832121 20.017577 291.655624 19.774893 Q 291.479127 19.532210 291.479127 18.782096 Z M 307.563318 2.897345 Q 307.563318 2.147232 307.761877 1.904548 Q 307.960436 1.661865 308.666425 1.661865 L 308.666425 1.132373 L 303.724503 1.132373 L 303.724503 1.661865 Q 304.430492 1.661865 304.629051 1.904548 Q 304.827610 2.147232 304.827610 2.897345 L 304.827610 18.782096 Q 304.827610 19.532210 304.629051 19.774893 Q 304.430492 20.017577 303.724503 20.017577 L 303.724503 20.547069 L 317.226541 20.547069 Q 320.138745 20.547069 321.462475 19.090966 Q 322.786204 17.634864 322.786204 15.119779 Q 322.786204 12.560569 321.396288 11.258902 Q 320.006373 9.957235 317.447163 9.868986 L 322.300837 2.456102 Q 322.609707 1.970735 322.830328 1.816300 Q 323.050950 1.661865 323.403944 1.661865 L 323.403944 1.132373 L 318.638519 1.132373 L 318.638519 1.661865 Q 319.123886 1.661865 319.234197 1.728051 Q 319.344508 1.794238 319.344508 2.014859 Q 319.344508 2.235481 319.212135 2.456102 Q 319.079762 2.676724 318.859141 3.073842 L 314.534958 9.868986 L 307.563318 9.868986 Z M 316.961795 12.339947 Q 318.550270 12.339947 319.212135 13.045936 Q 319.874000 13.751925 319.874000 15.208027 Q 319.874000 16.796502 319.190073 17.524554 Q 318.506146 18.252605 316.520552 18.252605 L 307.563318 18.252605 L 307.563318 12.339947 Z M 349.107234 15.075654 Q 349.195483 15.340400 349.195483 15.428649 L 349.195483 15.825768 Q 349.195483 16.090513 348.621867 16.509694 Q 348.048251 16.928875 347.099578 17.348056 Q 346.150906 17.767237 344.981612 18.054045 Q 343.812317 18.340853 342.620961 18.340853 Q 340.723616 18.340853 339.223389 17.745175 Q 337.723163 17.149497 336.664179 16.112576 Q 335.605196 15.075654 335.053642 13.707801 Q 334.502088 12.339947 334.502088 10.795596 Q 334.502088 9.251246 335.053642 7.927516 Q 335.605196 6.603787 336.642117 5.655115 Q 337.679039 4.706442 339.091016 4.154888 Q 340.502994 3.603334 342.223842 3.603334 Q 343.944690 3.603334 345.290482 3.956329 Q 346.636273 4.309323 347.562884 4.816753 Q 348.489494 5.324182 348.974861 5.831612 Q 349.460229 6.339041 349.460229 6.603787 Q 349.460229 7.089155 349.283732 7.486273 L 349.724975 7.751019 L 352.813676 3.691583 L 352.328309 3.338588 Q 351.975314 3.603334 351.798817 3.669521 Q 351.622320 3.735707 351.489947 3.735707 Q 351.092828 3.735707 350.408902 3.294464 Q 349.724975 2.853221 348.621867 2.323729 Q 347.518759 1.794238 345.996471 1.397119 Q 344.474182 1.000000 342.356215 1.000000 Q 340.105875 1.000000 338.142344 1.595678 Q 336.178812 2.191356 334.722710 3.448899 Q 333.266608 4.706442 332.428246 6.559663 Q 331.589884 8.412884 331.589884 10.795596 Q 331.589884 13.178309 332.450308 15.031530 Q 333.310732 16.884751 334.810958 18.164356 Q 336.311185 19.443961 338.296779 20.127888 Q 340.282373 20.811815 342.532712 20.811815 Q 344.430058 20.811815 345.665538 20.591193 Q 346.901019 20.370571 348.224748 19.885204 Q 349.107234 19.576334 349.680850 19.311588 Q 350.254466 19.046842 350.563337 19.046842 Q 350.916331 19.046842 351.269326 19.532210 L 351.798817 19.355712 L 349.636726 14.810909 Z M 381.429171 2.897345 Q 381.429171 2.147232 381.627730 1.904548 Q 381.826290 1.661865 382.532278 1.661865 L 382.532278 1.132373 L 377.590356 1.132373 L 377.590356 1.661865 Q 378.296345 1.661865 378.494904 1.904548 Q 378.693464 2.147232 378.693464 2.897345 L 378.693464 10.221980 L 365.367922 10.221980 L 365.367922 2.897345 Q 365.367922 2.147232 365.566482 1.904548 Q 365.765041 1.661865 366.471030 1.661865 L 366.471030 1.132373 L 361.529108 1.132373 L 361.529108 1.661865 Q 362.235097 1.661865 362.433656 1.904548 Q 362.632215 2.147232 362.632215 2.897345 L 362.632215 18.782096 Q 362.632215 19.532210 362.433656 19.774893 Q 362.235097 20.017577 361.529108 20.017577 L 361.529108 20.547069 L 366.471030 20.547069 L 366.471030 20.017577 Q 365.765041 20.017577 365.566482 19.774893 Q 365.367922 19.532210 365.367922 18.782096 L 365.367922 12.692942 L 378.693464 12.692942 L 378.693464 18.782096 Q 378.693464 19.532210 378.494904 19.774893 Q 378.296345 20.017577 377.590356 20.017577 L 377.590356 20.547069 L 382.532278 20.547069 L 382.532278 20.017577 Q 381.826290 20.017577 381.627730 19.774893 Q 381.429171 19.532210 381.429171 18.782096 Z" transform="scale(1.000000,1.000000) translate(143.825578,11.102857)" fill="#ffffff" opacity="1.000000"/><path d="M 1.000000 39.891415 L 60.330267 39.891415 L 60.330267 1.000000 L 1.000000 1.000000 Z" transform="scale(1.000000,1.000000) translate(13.473415,93.020434)" fill="#6f523b" opacity="1.000000"/><path d="M 1.000000 39.891415 L 60.330267 39.891415 L 60.330267 1.000000 L 1.000000 1.000000 Z" transform="scale(1.000000,1.000000) translate(81.352660,93.020434)" fill="#ac7f59" opacity="1.000000"/><path d="M 1.000000 39.891415 L 60.330267 39.891415 L 60.330267 1.000000 L 1.000000 1.000000 Z" transform="scale(1.000000,1.000000) translate(13.469797,45.930375)" fill="#3c2113" opacity="1.000000"/></g></svg>